<svg width="1332" height="1068" viewBox="0 0 1332 1068" fill="none" xmlns="http://www.w3.org/2000/svg">
<path d="M654.377 -69.5051C718.562 -77.2647 785.581 -89.2554 851.013 -85.3307C859.573 -94.0511 865.225 -106.793 874.747 -114.485C917.009 -148.627 973.958 -143.98 1023.66 -155.859C1057.27 -163.892 1088.48 -167.857 1122.57 -162.648C1159.62 -156.987 1194.4 -139.506 1229.85 -126.579C1277.5 -109.204 1323.93 -91.1121 1368.4 -64.4129C1474.6 -0.644196 1558.18 87.5692 1608.22 214.592C1645.19 308.42 1659.33 396.69 1648.41 498.69C1641.87 559.652 1633.51 620.085 1620.4 679.672C1591.55 810.874 1532.13 925.149 1425.85 986.897C1313.49 1052.18 1178.66 1067.95 1054.75 1067.95C818.505 1067.95 565.546 1074.59 352.005 940.219C296.264 905.142 244.538 861.356 195.637 814.613L193.185 812.27C137.997 759.528 75.07 699.389 43.269 623.235C-4.74928 508.245 -10.1168 369.915 13.9954 245.782C39.7199 113.349 127.065 54.2546 233.82 20.4556C373.465 -23.7565 510.56 -52.1181 654.377 -69.5051Z" fill="url(#paint0_linear_107_95)"/>
<defs>
<linearGradient id="paint0_linear_107_95" x1="1384.34" y1="-42.541" x2="0.676734" y2="1013.27" gradientUnits="userSpaceOnUse">
<stop stop-color="#EA22CA"/>
<stop offset="1" stop-color="#1997F3" stop-opacity="0"/>
</linearGradient>
</defs>
</svg>
